<svg width="43" height="26" viewBox="0 0 43 26" fill="none" xmlns="http://www.w3.org/2000/svg">
<rect x="0.142822" width="42.5714" height="26" rx="13" fill="#EDEDED"/>
<rect x="0.642822" y="0.5" width="41.5714" height="25" rx="12.5" stroke="white" stroke-opacity="0.07"/>
<path d="M10.1428 10.5H11.9827C12.7271 10.5 13.4099 10.9135 13.7549 11.5731L15.2474 14.4269C15.5924 15.0865 16.2753 15.5 17.0197 15.5H18.7143M15.3728 10.5H18.7143" stroke="#E74613" stroke-linecap="round"/>
<path d="M24.0783 18V7.92H28.2083C30.6303 7.92 31.7923 9.334 31.7923 11.098C31.7923 12.848 30.6303 14.276 28.2083 14.276H25.6323V18H24.0783ZM25.6323 12.89H28.1663C29.5803 12.89 30.1963 12.162 30.1963 11.098C30.1963 10.034 29.5803 9.292 28.1663 9.292H25.6323V12.89Z" fill="#E74613"/>
</svg>
