<svg width="42" height="26" viewBox="0 0 42 26" fill="none" xmlns="http://www.w3.org/2000/svg">
<rect width="41.5714" height="26" rx="13" fill="#EDEDED"/>
<rect x="0.5" y="0.5" width="40.5714" height="25" rx="12.5" stroke="white" stroke-opacity="0.07"/>
<path d="M10 10.5H11.8398C12.5843 10.5 13.2671 10.9135 13.6121 11.5731L15.1046 14.4269C15.4496 15.0865 16.1324 15.5 16.8769 15.5H18.5714M15.23 10.5H18.5714" stroke="#E74613" stroke-linecap="round"/>
<path d="M27.2692 18.168C24.8752 18.168 23.0972 17.048 23.0272 14.612H24.5952C24.6512 16.334 25.9112 16.838 27.2972 16.838C28.6132 16.838 29.5512 16.292 29.5512 15.214C29.5512 14.388 29.1032 13.968 26.8772 13.506C24.5112 13.044 23.3352 12.288 23.3352 10.468C23.3352 8.83 24.8192 7.752 26.9052 7.752C29.6912 7.752 30.8812 9.194 30.9372 11.084H29.3972C29.3132 9.768 28.5852 9.082 26.9052 9.082C25.7292 9.082 24.9452 9.6 24.9452 10.44C24.9452 11.28 25.2532 11.714 27.4652 12.148C30.4192 12.736 31.1612 13.66 31.1612 15.172C31.1612 17.034 29.5652 18.168 27.2692 18.168Z" fill="#E74613"/>
</svg>
