<svg width="11" height="11" viewBox="0 0 11 11" fill="none" xmlns="http://www.w3.org/2000/svg">
<path d="M4.26856 0.397129C4.27456 0.185091 4.62173 0.0943575 4.72891 0.277478C5.23303 1.13583 6.08697 2.3947 7.04072 2.95825C7.99444 3.51988 9.51121 3.65953 10.5058 3.68484C10.7179 3.69083 10.8067 4.03804 10.6235 4.14522C9.76519 4.64934 8.50824 5.50325 7.94469 6.457C7.38114 7.41075 7.24342 8.92749 7.21811 9.92209C7.21212 10.1341 6.86299 10.223 6.75773 10.0398C6.25361 9.18147 5.3997 7.92452 4.44402 7.361C3.49027 6.79745 1.97353 6.65972 0.980854 6.63438C0.768816 6.62839 0.678047 6.27929 0.861201 6.17404C1.71955 5.66992 2.97843 4.81597 3.54195 3.8603C4.10357 2.90658 4.24322 1.38981 4.26856 0.397129Z" fill="white"/>
</svg>
