<svg width="46" height="46" viewBox="0 0 46 46" fill="none" xmlns="http://www.w3.org/2000/svg">
<g clip-path="url(#clip0_142_323)">
<path d="M23 45.9146C22.2857 45.9146 21.6191 45.7459 21.0001 45.4506L14.6666 42.1183C13.7143 41.6543 14.1905 41.4856 14.4762 41.4012C15.7618 41.0216 15.9999 40.9372 17.3332 40.2622C17.4762 40.1778 17.6667 40.22 17.8094 40.3044L22.6667 42.8775C22.8571 42.9618 23.0952 42.9618 23.2381 42.8775L42.2382 33.1336C42.4287 33.0492 42.5239 32.8805 42.5239 32.6696V13.2237C42.5239 13.0128 42.4287 12.8441 42.2382 12.7597L23.2381 3.05789C23.0476 2.97353 22.8095 2.97353 22.6667 3.05789L3.66652 12.7599C3.47605 12.8443 3.38082 13.0552 3.38082 13.2239V32.6696C3.38082 32.8383 3.47605 33.0492 3.66652 33.1336L8.85716 35.7909C11.6667 37.0563 13.4284 35.58 13.4284 34.1037V14.9109C13.4284 14.6578 13.6667 14.4048 14 14.4048H16.4286C16.7144 14.4048 17.0001 14.6157 17.0001 14.9109V34.1036C17.0001 37.436 14.9523 39.3762 11.3809 39.3762C10.2857 39.3762 9.42856 39.3762 7.00009 38.3217L1.99992 35.7909C0.761875 35.1581 0 33.977 0 32.7116V13.2661C0 12.0007 0.761875 10.8196 1.99992 10.1868L21.0001 0.442889C22.1905 -0.14763 23.8095 -0.14763 24.9999 0.442889L44.0001 10.1868C45.2381 10.8195 46 12.0005 46 13.2661V32.7118C46 33.9772 45.2381 35.1582 44.0001 35.7909L24.9999 45.5351C24.3809 45.7882 23.6666 45.9148 23 45.9148M28.8571 32.5431C20.5237 32.5431 18.8095 29.1687 18.8095 26.3003C18.8095 26.0472 19.0476 25.7941 19.3809 25.7941H21.857C22.1427 25.7941 22.381 25.9629 22.381 26.2159C22.7619 28.4515 23.8571 29.5483 28.9047 29.5483C32.9047 29.5483 34.6191 28.7469 34.6191 26.8488C34.6191 25.752 34.143 24.9505 27.9048 24.402C22.7143 23.9381 19.4761 22.9257 19.4761 19.2561C19.4761 15.8392 22.7141 13.8146 28.1428 13.8146C34.238 13.8146 37.2381 15.6705 37.619 19.7199C37.619 19.8465 37.5714 19.973 37.4762 20.0995C37.3809 20.1839 37.2381 20.2682 37.0952 20.2682H34.6191C34.3809 20.2682 34.143 20.0995 34.0952 19.8886C33.5238 17.5687 32.0476 16.8095 28.1428 16.8095C23.7621 16.8095 23.2381 18.1593 23.2381 19.1716C23.2381 20.3949 23.8571 20.7744 29.7618 21.4493C35.6191 22.1242 38.3809 23.0945 38.3809 26.7221C38.3333 30.4341 34.9048 32.5431 28.8571 32.5431Z" fill="#539E43"/>
</g>
<defs>
<clipPath id="clip0_142_323">
<rect width="46" height="46" fill="white"/>
</clipPath>
</defs>
</svg>
