<svg width="46" height="46" viewBox="0 0 46 46" fill="none" xmlns="http://www.w3.org/2000/svg">
<g clip-path="url(#clip0_142_353)">
<path d="M0 0H46V46H0V0Z" fill="#F7DF1E"/>
<path d="M12.0949 38.4408L15.615 36.3104C16.2942 37.5145 16.912 38.5333 18.3939 38.5333C19.8143 38.5333 20.71 37.9777 20.71 35.8164V21.1183H25.0328V35.8775C25.0328 40.3548 22.4083 42.3928 18.5791 42.3928C15.121 42.3928 13.1137 40.6019 12.0947 38.4404M27.3807 37.9775L30.9005 35.9397C31.8271 37.4528 33.0314 38.5644 35.1618 38.5644C36.9531 38.5644 38.0951 37.6688 38.0951 36.4336C38.0951 34.9516 36.9218 34.4265 34.9456 33.5622L33.8651 33.0986C30.7463 31.7713 28.6775 30.1038 28.6775 26.5837C28.6775 23.3414 31.1477 20.8711 35.0076 20.8711C37.7557 20.8711 39.7319 21.8285 41.1522 24.3295L37.7863 26.4912C37.0451 25.1635 36.2426 24.6386 35.0074 24.6386C33.7413 24.6386 32.9385 25.4414 32.9385 26.4912C32.9385 27.788 33.7413 28.3132 35.5939 29.1161L36.6745 29.5791C40.3491 31.1541 42.4179 32.7596 42.4179 36.372C42.4179 40.263 39.361 42.3933 35.2543 42.3933C31.2402 42.3933 28.6465 40.479 27.3806 37.9777" fill="black"/>
</g>
<defs>
<clipPath id="clip0_142_353">
<rect width="46" height="46" fill="white"/>
</clipPath>
</defs>
</svg>
