<svg width="46" height="46" viewBox="0 0 46 46" fill="none" xmlns="http://www.w3.org/2000/svg">
<path d="M0 23C0 29.6818 10.2975 35.099 23 35.099C35.7025 35.099 46 29.6818 46 23C46 16.3181 35.7021 10.9009 23 10.9009C10.2979 10.9009 0 16.3181 0 23Z" fill="url(#paint0_radial_142_341)"/>
<path d="M23 34.2006C35.2062 34.2006 45.1016 29.1855 45.1016 23C45.1016 16.8137 35.2062 11.7993 23 11.7993C10.7938 11.7993 0.898438 16.8137 0.898438 23C0.898438 29.1855 10.7938 34.2006 23 34.2006Z" fill="#777BB3"/>
<path d="M12.4966 24.3886C13.5003 24.3886 14.2492 24.2035 14.7232 23.8387C15.1926 23.4772 15.5164 22.8515 15.6864 21.979C15.8445 21.1632 15.7841 20.5939 15.5067 20.2863C15.2235 19.9722 14.6108 19.813 13.6857 19.813H12.0815L11.1927 24.3886H12.4966ZM7.25005 30.0246C7.21324 30.0246 7.1769 30.0164 7.14363 30.0006C7.11037 29.9849 7.081 29.962 7.05764 29.9335C7.03428 29.9051 7.01751 29.8718 7.00852 29.8361C6.99954 29.8004 6.99856 29.7632 7.00567 29.7271L9.36209 17.6025C9.37323 17.5458 9.40367 17.4947 9.44822 17.458C9.49278 17.4212 9.5487 17.401 9.60647 17.4009H14.6859C16.2822 17.4009 17.4703 17.8343 18.2175 18.6892C18.9678 19.5481 19.2 20.7499 18.9064 22.2596C18.7867 22.8745 18.5811 23.4456 18.2954 23.9573C17.9981 24.4838 17.6186 24.9593 17.1713 25.3661C16.6211 25.8807 15.9983 26.2544 15.3216 26.474C14.656 26.6911 13.8007 26.8011 12.7808 26.8011H10.7238L10.1365 29.8227C10.1255 29.8795 10.0949 29.9308 10.0502 29.9676C10.0055 30.0045 9.94939 30.0246 9.89145 30.0246H7.25005Z" fill="black"/>
<path d="M12.2872 20.0627H13.6855C14.8021 20.0627 15.1899 20.3078 15.3217 20.454C15.5399 20.6962 15.5816 21.2076 15.4407 21.9318C15.2829 22.7429 14.9904 23.3182 14.571 23.641C14.1419 23.9716 13.4433 24.1391 12.4963 24.1391H11.4951L12.2872 20.0627ZM14.6857 17.1517H9.60661C9.49078 17.1517 9.37856 17.192 9.28914 17.2656C9.19973 17.3392 9.13867 17.4416 9.11642 17.5553L6.76 29.6803C6.74608 29.7525 6.74829 29.8269 6.76646 29.8982C6.78462 29.9694 6.81831 30.0358 6.8651 30.0926C6.91189 30.1493 6.97064 30.195 7.03715 30.2264C7.10365 30.2579 7.17628 30.2742 7.24983 30.2743H9.89123C10.007 30.2742 10.1192 30.2338 10.2086 30.1602C10.2979 30.0865 10.3589 29.984 10.3811 29.8704L10.9291 27.0507H12.7803C13.8268 27.0507 14.7079 26.9364 15.399 26.7115C16.1095 26.4807 16.7632 26.0894 17.3418 25.5482C17.8078 25.1239 18.2031 24.6281 18.513 24.0794C18.8116 23.545 19.0265 22.9484 19.1509 22.3073C19.46 20.7178 19.2087 19.4453 18.4048 18.5253C17.6085 17.6135 16.3571 17.1514 14.6857 17.1514V17.1517ZM10.8896 24.6379H12.4963C13.5613 24.6381 14.3543 24.4375 14.8754 24.0359C15.3965 23.6349 15.7484 22.9651 15.9313 22.0266C16.1057 21.1253 16.026 20.4895 15.6923 20.1191C15.358 19.7487 14.6891 19.5635 13.6855 19.5635H11.8757L10.8896 24.6379ZM14.686 17.6498C16.2141 17.6498 17.3285 18.0509 18.0293 18.853C18.7301 19.6551 18.9409 20.7747 18.6618 22.2117C18.5463 22.804 18.3516 23.3452 18.0778 23.8354C17.8035 24.326 17.4452 24.7749 17.0029 25.182C16.4758 25.6755 15.8898 26.0271 15.2448 26.2367C14.6001 26.4466 13.7787 26.5514 12.7806 26.5512H10.518L9.89159 29.7748H7.25019L9.60697 17.6498H14.686Z" fill="white"/>
<path d="M24.9617 26.801C24.9249 26.8011 24.8885 26.7929 24.8552 26.7773C24.8219 26.7616 24.7924 26.7387 24.769 26.7103C24.7456 26.6819 24.7287 26.6486 24.7197 26.6129C24.7106 26.5772 24.7096 26.54 24.7166 26.5038L25.7588 21.1391C25.8584 20.6287 25.8339 20.2629 25.6906 20.1077C25.6025 20.0131 25.3387 19.8547 24.5585 19.8547H22.6696L21.3594 26.5994C21.3481 26.6562 21.3175 26.7073 21.2727 26.744C21.2279 26.7807 21.1718 26.8008 21.1139 26.8007H18.4941C18.4573 26.8007 18.4209 26.7926 18.3876 26.7769C18.3543 26.7612 18.3249 26.7384 18.3014 26.71C18.278 26.6817 18.2611 26.6485 18.2519 26.6128C18.2428 26.5772 18.2417 26.54 18.2486 26.5038L20.6054 14.3789C20.6166 14.3221 20.6471 14.2709 20.6918 14.2341C20.7365 14.1973 20.7926 14.1772 20.8505 14.1772H23.4703C23.5071 14.1772 23.5435 14.1853 23.5768 14.201C23.6101 14.2167 23.6395 14.2395 23.663 14.2678C23.6864 14.2962 23.7033 14.3294 23.7125 14.3651C23.7216 14.4007 23.7227 14.4379 23.7158 14.4741L23.1473 17.4008H25.1788C26.7266 17.4008 27.776 17.6732 28.3873 18.2349C29.0101 18.8074 29.2049 19.7228 28.9652 20.9565L27.8687 26.5994C27.8575 26.6561 27.8269 26.7072 27.7822 26.7439C27.7375 26.7806 27.6815 26.8007 27.6236 26.8007L24.9617 26.801Z" fill="black"/>
<path d="M23.471 13.9277H20.8508C20.7349 13.9278 20.6227 13.9681 20.5333 14.0418C20.4438 14.1155 20.3828 14.2179 20.3606 14.3317L18.0042 26.4563C17.9902 26.5285 17.9924 26.603 18.0105 26.6743C18.0287 26.7456 18.0623 26.812 18.1091 26.8688C18.1559 26.9256 18.2147 26.9714 18.2813 27.0028C18.3478 27.0342 18.4204 27.0506 18.494 27.0507H21.1142C21.2301 27.0506 21.3424 27.0103 21.4318 26.9366C21.5212 26.863 21.5823 26.7605 21.6044 26.6467L22.8755 20.1043H24.5581C25.3373 20.1043 25.5011 20.2707 25.5072 20.2782C25.5547 20.3286 25.6169 20.564 25.5141 21.0919L24.4719 26.4563C24.4579 26.5285 24.4601 26.603 24.4782 26.6744C24.4964 26.7457 24.5301 26.8122 24.5769 26.869C24.6238 26.9258 24.6826 26.9715 24.7492 27.0029C24.8157 27.0343 24.8884 27.0506 24.9621 27.0507H27.6243C27.7401 27.0506 27.8523 27.0102 27.9417 26.9365C28.031 26.8628 28.092 26.7604 28.1141 26.6467L29.2106 21.0045C29.4676 19.6799 29.2476 18.6866 28.5565 18.0516C27.8967 17.4457 26.792 17.1513 25.1791 17.1513H23.4505L23.9612 14.5225C23.9753 14.4502 23.9731 14.3757 23.955 14.3043C23.9369 14.2329 23.9032 14.1664 23.8563 14.1096C23.8095 14.0527 23.7506 14.0069 23.684 13.9755C23.6174 13.9441 23.5447 13.9278 23.471 13.9277ZM23.471 14.4273L22.8446 17.6501H25.1791C26.648 17.6501 27.6611 17.9065 28.2184 18.4192C28.7761 18.9314 28.9436 19.7616 28.7208 20.9097L27.624 26.5515H24.9621L26.0046 21.1867C26.1232 20.5765 26.0795 20.1604 25.8734 19.9383C25.6674 19.7164 25.2292 19.6055 24.5588 19.6055H22.4641L21.1142 26.5511H18.4937L20.8505 14.4262H23.471V14.4273Z" fill="white"/>
<path d="M33.1114 24.3886C34.1152 24.3886 34.8645 24.2035 35.3388 23.8387C35.8075 23.4772 36.1316 22.8515 36.3016 21.979C36.4597 21.1632 36.3997 20.5939 36.1219 20.2863C35.8387 19.9722 35.226 19.813 34.301 19.813H32.6971L31.8076 24.3886H33.1114ZM27.866 30.0246C27.8291 30.0247 27.7927 30.0166 27.7594 30.0009C27.726 29.9852 27.6965 29.9623 27.6731 29.9338C27.6497 29.9053 27.6328 29.872 27.6238 29.8363C27.6148 29.8006 27.6138 29.7633 27.6209 29.7271L29.9773 17.6025C29.9885 17.5457 30.019 17.4945 30.0637 17.4578C30.1084 17.421 30.1645 17.4009 30.2224 17.4009H35.3015C36.8978 17.4009 38.0859 17.8343 38.8327 18.6892C39.5834 19.5481 39.8152 20.7499 39.5216 22.2596C39.4093 22.8543 39.2032 23.4273 38.911 23.9573C38.6137 24.4838 38.2342 24.9593 37.7869 25.3661C37.2371 25.8807 36.6135 26.2544 35.9372 26.474C35.2716 26.6911 34.4163 26.8011 33.3961 26.8011H31.3394L30.7525 29.8227C30.7414 29.8796 30.7108 29.9309 30.666 29.9677C30.6213 30.0046 30.565 30.0247 30.507 30.0246H27.866Z" fill="black"/>
<path d="M32.9024 20.0627H34.3007C35.4173 20.0627 35.8051 20.3078 35.9366 20.454C36.1558 20.6962 36.1968 21.2076 36.0563 21.9318C35.8982 22.7429 35.6056 23.3182 35.1863 23.641C34.7568 23.9716 34.0582 24.1391 33.1116 24.1391H32.1104L32.9024 20.0627ZM35.3009 17.1517H30.2218C30.1061 17.1518 29.9939 17.1921 29.9046 17.2657C29.8153 17.3393 29.7543 17.4417 29.732 17.5553L27.3752 29.6803C27.3613 29.7525 27.3635 29.8269 27.3817 29.8982C27.3999 29.9695 27.4336 30.036 27.4804 30.0927C27.5273 30.1495 27.5861 30.1952 27.6526 30.2266C27.7192 30.258 27.7918 30.2743 27.8654 30.2743H30.5068C30.6226 30.2742 30.7348 30.2338 30.8242 30.1602C30.9135 30.0865 30.9745 29.984 30.9967 29.8704L31.5447 27.0507H33.3955C34.4416 27.0507 35.3232 26.9364 36.0139 26.7115C36.7247 26.4807 37.3784 26.0894 37.9574 25.5478C38.4232 25.1236 38.8184 24.628 39.1282 24.0794C39.4272 23.545 39.6414 22.9484 39.7661 22.3073C40.0752 20.7178 39.8243 19.4453 39.0201 18.5253C38.2237 17.6135 36.9727 17.1514 35.3005 17.1514L35.3009 17.1517ZM31.5048 24.6379H33.1112C34.1762 24.6381 34.9694 24.4375 35.491 24.0359C36.0121 23.6349 36.3638 22.9651 36.5461 22.0266C36.7213 21.1253 36.6416 20.4895 36.3071 20.1191C35.9727 19.7487 35.3039 19.5635 34.3007 19.5635H32.4913L31.5048 24.6379ZM35.3009 17.6498C36.829 17.6498 37.9434 18.0509 38.6442 18.853C39.3449 19.6551 39.5556 20.7747 39.2763 22.2117C39.1613 22.804 38.9668 23.3452 38.6927 23.8354C38.4186 24.326 38.0602 24.7749 37.6174 25.182C37.0903 25.6755 36.5043 26.0271 35.8594 26.2367C35.2149 26.4466 34.3936 26.5514 33.3955 26.5512H31.1332L30.5061 29.7748H27.8647L30.2215 17.6498H35.3009Z" fill="white"/>
<defs>
<radialGradient id="paint0_radial_142_341" cx="0" cy="0" r="1" gradientUnits="userSpaceOnUse" gradientTransform="translate(13.8093 15.1544) scale(30.2024)">
<stop stop-color="#AEB2D5"/>
<stop offset="0.3" stop-color="#AEB2D5"/>
<stop offset="0.75" stop-color="#484C89"/>
<stop offset="1" stop-color="#484C89"/>
</radialGradient>
</defs>
</svg>
