<svg width="46" height="46" viewBox="0 0 46 46" fill="none" xmlns="http://www.w3.org/2000/svg">
<g clip-path="url(#clip0_142_292)">
<path d="M16.3516 46.3594C20.6281 46.3594 24.0781 42.9094 24.0781 38.6328V30.9062H16.3516C12.075 30.9062 8.625 34.3563 8.625 38.6328C8.625 42.9094 12.075 46.3594 16.3516 46.3594Z" fill="#0ACF83"/>
<path d="M8.625 23.1797C8.625 18.9031 12.075 15.4531 16.3516 15.4531H24.0781V30.9062H16.3516C12.075 30.9062 8.625 27.4563 8.625 23.1797Z" fill="#A259FF"/>
<path d="M8.625 7.72656C8.625 3.45 12.075 0 16.3516 0H24.0781V15.4531H16.3516C12.075 15.4531 8.625 12.0031 8.625 7.72656Z" fill="#F24E1E"/>
<path d="M24.0781 0H31.8047C36.0813 0 39.5312 3.45 39.5312 7.72656C39.5312 12.0031 36.0813 15.4531 31.8047 15.4531H24.0781V0Z" fill="#FF7262"/>
<path d="M39.5312 23.1797C39.5312 27.4563 36.0813 30.9062 31.8047 30.9062C27.5281 30.9062 24.0781 27.4563 24.0781 23.1797C24.0781 18.9031 27.5281 15.4531 31.8047 15.4531C36.0813 15.4531 39.5312 18.9031 39.5312 23.1797Z" fill="#1ABCFE"/>
</g>
<defs>
<clipPath id="clip0_142_292">
<rect width="46" height="46" fill="white"/>
</clipPath>
</defs>
</svg>
