<svg width="46" height="46" viewBox="0 0 46 46" fill="none" xmlns="http://www.w3.org/2000/svg">
<path d="M35.2188 0H10.7812C4.82693 0 0 4.82693 0 10.7812V35.2188C0 41.1731 4.82693 46 10.7812 46H35.2188C41.1731 46 46 41.1731 46 35.2188V10.7812C46 4.82693 41.1731 0 35.2188 0Z" fill="#0073AA"/>
<path d="M7.58496 22.999C7.58496 29.1003 11.1307 34.3731 16.2723 36.8718L8.9195 16.726C8.0383 18.6998 7.58354 20.8374 7.58496 22.999ZM33.405 22.2212C33.405 20.3163 32.7207 18.997 32.1339 17.9701C31.3524 16.7005 30.62 15.6252 30.62 14.3555C30.62 12.9385 31.6947 11.6196 33.2084 11.6196C33.2769 11.6196 33.3415 11.6281 33.4082 11.6318C30.6658 9.11944 27.0122 7.58545 22.9991 7.58545C17.6142 7.58545 12.8764 10.3483 10.1204 14.5332C10.4819 14.544 10.8228 14.5518 11.1122 14.5518C12.7246 14.5518 15.2202 14.3559 15.2202 14.3559C16.0511 14.307 16.1492 15.5275 15.3191 15.6257C15.3191 15.6257 14.4841 15.724 13.5549 15.7727L19.168 32.4689L22.5413 22.352L20.1397 15.7722C19.3098 15.7235 18.5234 15.6252 18.5234 15.6252C17.6927 15.5765 17.7901 14.3065 18.6208 14.3555C18.6208 14.3555 21.1663 14.551 22.6809 14.551C24.293 14.551 26.7889 14.3555 26.7889 14.3555C27.6205 14.3065 27.7181 15.5269 26.8877 15.6252C26.8877 15.6252 26.0509 15.7235 25.1235 15.7722L30.694 32.3419L32.2314 27.2043C32.8979 25.0721 33.405 23.5408 33.405 22.2212Z" fill="white"/>
<path d="M23.2703 24.3471L18.6455 37.7859C20.0595 38.2024 21.5259 38.4138 22.9999 38.4139C24.7432 38.4145 26.474 38.119 28.1185 37.5401C28.0757 37.4727 28.039 37.4016 28.0088 37.3277L23.2703 24.3471ZM36.5251 15.6035C36.5951 16.1289 36.6298 16.6584 36.629 17.1884C36.629 18.7525 36.3368 20.511 35.4569 22.7096L30.7485 36.3226C35.3311 33.6502 38.4135 28.6857 38.4135 22.9991C38.4136 20.3191 37.7292 17.7989 36.5251 15.6035Z" fill="white"/>
<path d="M22.9996 5.03125C13.092 5.03125 5.03125 13.0915 5.03125 22.9989C5.03125 32.9076 13.092 40.9675 22.9996 40.9675C32.9067 40.9675 40.9688 32.9076 40.9688 22.9989C40.9684 13.0915 32.9067 5.03125 22.9996 5.03125ZM22.9996 40.144C13.5463 40.144 5.85512 32.4526 5.85512 22.9989C5.85512 13.5457 13.5461 5.85512 22.9996 5.85512C32.4525 5.85512 40.1431 13.5457 40.1431 22.9989C40.1431 32.4526 32.4525 40.144 22.9996 40.144Z" fill="white"/>
</svg>
