<svg width="46" height="42" viewBox="0 0 46 42" fill="none" xmlns="http://www.w3.org/2000/svg">
<path d="M23.0002 25.0971C25.2628 25.0971 27.0971 23.2628 27.0971 21.0002C27.0971 18.7376 25.2628 16.9033 23.0002 16.9033C20.7376 16.9033 18.9033 18.7376 18.9033 21.0002C18.9033 23.2628 20.7376 25.0971 23.0002 25.0971Z" fill="#61DAFB"/>
<path d="M38.5607 14.2439C37.7701 13.9564 36.9436 13.6689 36.0811 13.4174C36.2967 12.5549 36.4764 11.6924 36.6201 10.8658C37.3748 6.12207 36.5482 2.77988 34.2482 1.48613C33.5654 1.09082 32.8107 0.911133 31.9482 0.911133C29.4326 0.911133 26.2342 2.77988 22.9998 5.90645C19.7654 2.77988 16.567 0.911133 14.0514 0.911133C13.1889 0.911133 12.4342 1.09082 11.7514 1.48613C9.45137 2.81582 8.62481 6.15801 9.37949 10.8658C9.52324 11.6924 9.70293 12.5549 9.91856 13.4174C9.05606 13.6689 8.22949 13.9205 7.43887 14.2439C2.94668 15.9689 0.50293 18.3408 0.50293 21.0002C0.50293 23.6596 2.98262 26.0314 7.43887 27.7564C8.22949 28.0439 9.05606 28.3314 9.91856 28.583C9.70293 29.4455 9.52324 30.308 9.37949 31.1346C8.62481 35.8783 9.45137 39.2205 11.7514 40.5143C12.4342 40.9096 13.1889 41.0893 14.0514 41.0893C16.6029 41.0893 19.8014 39.2205 22.9998 36.0939C26.2342 39.2205 29.4326 41.0893 31.9482 41.0893C32.8107 41.0893 33.5654 40.9096 34.2482 40.5143C36.5482 39.1846 37.3748 35.8424 36.6201 31.1346C36.4764 30.308 36.2967 29.4455 36.0811 28.583C36.9436 28.3314 37.7701 28.0799 38.5607 27.7564C43.0529 26.0314 45.4967 23.6596 45.4967 21.0002C45.4967 18.3408 43.0529 15.9689 38.5607 14.2439ZM33.242 3.28301C34.7154 4.14551 35.2186 6.80488 34.6076 10.5783C34.4998 11.333 34.3201 12.1236 34.1045 12.9502C32.2357 12.5189 30.2592 12.2314 28.1748 12.0518C26.9529 10.3268 25.6951 8.78145 24.4373 7.37988C27.0967 4.75645 29.792 2.95957 31.9842 2.95957C32.4514 2.95957 32.8826 3.06738 33.242 3.28301ZM29.217 24.5939C28.5701 25.7439 27.8154 26.8939 27.0248 28.0439C25.6951 28.1518 24.3654 28.1877 22.9998 28.1877C21.5982 28.1877 20.2686 28.1518 18.9748 28.0439C18.1842 26.8939 17.4654 25.7439 16.8186 24.5939C16.1357 23.408 15.4889 22.1861 14.9139 21.0002C15.4889 19.8143 16.1357 18.5924 16.8186 17.4064C17.4654 16.2564 18.2201 15.1064 19.0107 13.9564C20.3404 13.8486 21.6701 13.8127 23.0357 13.8127C24.4373 13.8127 25.767 13.8486 27.0607 13.9564C27.8514 15.1064 28.5701 16.2564 29.217 17.4064C29.8998 18.5924 30.5467 19.8143 31.1217 21.0002C30.5107 22.1861 29.8998 23.3721 29.217 24.5939ZM32.1998 23.408C32.7389 24.6658 33.1701 25.8877 33.5654 27.1096C32.3436 27.3971 31.0498 27.6127 29.6842 27.7924C30.1154 27.1096 30.5826 26.3908 30.9779 25.6361C31.4092 24.8814 31.8045 24.1268 32.1998 23.408ZM22.9998 33.1471C22.1373 32.2127 21.3107 31.2064 20.5201 30.1643C21.3467 30.2002 22.1732 30.2361 22.9998 30.2361C23.8264 30.2361 24.6529 30.2002 25.4795 30.1643C24.6889 31.2064 23.8623 32.2127 22.9998 33.1471ZM16.3154 27.7564C14.9498 27.5768 13.6561 27.3611 12.4342 27.0736C12.8295 25.8877 13.2607 24.6299 13.7998 23.3721C14.1951 24.0908 14.5904 24.8455 15.0217 25.5643C15.4529 26.3549 15.8842 27.0377 16.3154 27.7564ZM13.7998 18.5924C13.2607 17.3346 12.8295 16.1127 12.4342 14.8908C13.6561 14.6033 14.9498 14.3877 16.3154 14.208C15.8842 14.8908 15.417 15.6096 15.0217 16.3643C14.5904 17.1189 14.1951 17.8736 13.7998 18.5924ZM22.9998 8.85332C23.8623 9.7877 24.6889 10.7939 25.4795 11.8361C24.6529 11.8002 23.8264 11.7643 22.9998 11.7643C22.1732 11.7643 21.3467 11.8002 20.5201 11.8361C21.3107 10.7939 22.1373 9.7877 22.9998 8.85332ZM30.9779 16.4002L29.6842 14.2439C31.0498 14.4236 32.3436 14.6393 33.5654 14.9268C33.1701 16.1127 32.7389 17.3705 32.1998 18.6283C31.8045 17.8736 31.4092 17.1189 30.9779 16.4002ZM11.392 10.5783C10.7811 6.80488 11.2842 4.14551 12.7576 3.28301C13.117 3.06738 13.5482 2.95957 14.0154 2.95957C16.1717 2.95957 18.867 4.72051 21.5623 7.37988C20.3045 8.74551 19.0467 10.3268 17.8248 12.0518C15.7404 12.2314 13.7639 12.5549 11.8951 12.9502C11.6795 12.1236 11.5357 11.333 11.392 10.5783ZM2.51543 21.0002C2.51543 19.3111 4.56387 17.5143 8.15762 16.1846C8.87637 15.8971 9.66699 15.6455 10.4576 15.4299C11.0326 17.2268 11.7514 19.1314 12.6139 21.0361C11.7514 22.9408 10.9967 24.8096 10.4576 26.6064C5.49824 25.1689 2.51543 23.0127 2.51543 21.0002ZM12.7576 38.7174C11.2842 37.8549 10.7811 35.1955 11.392 31.4221C11.4998 30.6674 11.6795 29.8768 11.8951 29.0502C13.7639 29.4814 15.7404 29.7689 17.8248 29.9486C19.0467 31.6736 20.3045 33.2189 21.5623 34.6205C18.9029 37.2439 16.2076 39.0408 14.0154 39.0408C13.5482 39.0408 13.117 38.933 12.7576 38.7174ZM34.6076 31.4221C35.2186 35.1955 34.7154 37.8549 33.242 38.7174C32.8826 38.933 32.4514 39.0408 31.9842 39.0408C29.8279 39.0408 27.1326 37.2799 24.4373 34.6205C25.6951 33.2549 26.9529 31.6736 28.1748 29.9486C30.2592 29.7689 32.2357 29.4455 34.1045 29.0502C34.3201 29.8768 34.4639 30.6674 34.6076 31.4221ZM37.842 25.8158C37.1232 26.1033 36.3326 26.3549 35.542 26.5705C34.967 24.7736 34.2482 22.8689 33.3857 20.9643C34.2482 19.0596 35.0029 17.1908 35.542 15.3939C40.5014 16.8314 43.4842 18.9877 43.4842 21.0002C43.4842 22.6893 41.3998 24.4861 37.842 25.8158Z" fill="#61DAFB"/>
</svg>
