<svg width="46" height="46" viewBox="0 0 46 46" fill="none" xmlns="http://www.w3.org/2000/svg">
<path d="M35.2188 0H10.7812C4.82693 0 0 4.82693 0 10.7812V35.2188C0 41.1731 4.82693 46 10.7812 46H35.2188C41.1731 46 46 41.1731 46 35.2188V10.7812C46 4.82693 41.1731 0 35.2188 0Z" fill="#F4F2ED"/>
<path d="M15.2277 20.118C15.2277 20.5554 15.2749 20.9099 15.3576 21.1701C15.4625 21.4628 15.589 21.7473 15.736 22.0212C15.7951 22.1158 15.8187 22.2103 15.8187 22.2931C15.8187 22.4113 15.7477 22.5296 15.5941 22.6476L14.8493 23.1443C14.7429 23.2151 14.6365 23.2507 14.542 23.2507C14.4238 23.2507 14.3055 23.1915 14.1873 23.0852C14.0281 22.914 13.8856 22.7279 13.7618 22.5296C13.6297 22.3024 13.5074 22.0697 13.3952 21.832C12.4732 22.9197 11.3147 23.4635 9.91971 23.4634C8.92676 23.4634 8.1347 23.1797 7.55538 22.6122C6.97625 22.0448 6.68066 21.2883 6.68066 20.3426C6.68066 19.3376 7.03537 18.522 7.75645 17.9073C8.47754 17.2926 9.43509 16.9851 10.6527 16.9851C11.0546 16.9851 11.4684 17.0207 11.9058 17.0798C12.3432 17.139 12.7924 17.2335 13.2653 17.3398V16.4768C13.2653 15.5784 13.0761 14.9518 12.7097 14.5854C12.3313 14.2189 11.693 14.0417 10.7827 14.0417C10.3689 14.0417 9.94343 14.0889 9.50607 14.1953C9.06871 14.3017 8.64303 14.4318 8.22921 14.5973C8.09479 14.6574 7.95662 14.7087 7.81557 14.7509C7.73291 14.7746 7.67362 14.7865 7.62636 14.7865C7.46105 14.7865 7.37803 14.6683 7.37803 14.4199V13.8406C7.37803 13.6516 7.40175 13.5096 7.46087 13.427C7.51998 13.3443 7.62636 13.2615 7.79185 13.1786C8.20561 12.9659 8.70215 12.7886 9.28146 12.6468C9.86059 12.493 10.4753 12.4222 11.1256 12.4222C12.5324 12.4222 13.5607 12.7413 14.2229 13.3795C14.873 14.018 15.204 14.9874 15.204 16.2878V20.118H15.2277ZM10.4282 21.9149C10.8181 21.9149 11.2201 21.8439 11.6458 21.7019C12.0713 21.5602 12.4495 21.3 12.7688 20.9455C12.9579 20.7208 13.0998 20.4725 13.1706 20.1888C13.2414 19.9051 13.2889 19.5622 13.2889 19.1604V18.6638C12.9304 18.5766 12.5673 18.5095 12.2014 18.4629C11.8328 18.4163 11.4616 18.3926 11.09 18.3919C10.298 18.3919 9.71882 18.5457 9.32872 18.8649C8.93862 19.184 8.74941 19.6332 8.74941 20.2244C8.74941 20.78 8.89136 21.1936 9.18677 21.4773C9.47067 21.7729 9.88449 21.9149 10.4282 21.9149ZM19.9206 23.1915C19.7078 23.1915 19.5659 23.156 19.4714 23.0733C19.3768 23.0023 19.294 22.8368 19.2232 22.6122L16.4452 13.4742C16.3741 13.2378 16.3387 13.0841 16.3387 13.0013C16.3387 12.8123 16.4332 12.7057 16.6224 12.7057H17.7809C18.0055 12.7057 18.1593 12.7413 18.2419 12.8239C18.3365 12.8949 18.4074 13.0604 18.4784 13.285L20.4643 21.1109L22.3086 13.285C22.3677 13.0485 22.4385 12.8951 22.5332 12.8239C22.6278 12.7531 22.7932 12.7059 23.006 12.7059H23.9517C24.1763 12.7059 24.3301 12.7413 24.4246 12.8239C24.5191 12.8949 24.602 13.0604 24.6492 13.285L26.5171 21.2055L28.5621 13.285C28.6331 13.0485 28.7159 12.8951 28.7986 12.8239C28.8931 12.7531 29.0469 12.7059 29.2597 12.7059H30.359C30.5482 12.7059 30.6546 12.8004 30.6546 13.0013C30.6546 13.0606 30.6427 13.1195 30.6308 13.1905C30.6192 13.2615 30.5955 13.3558 30.5482 13.4861L27.6992 22.6241C27.6282 22.8606 27.5454 23.0143 27.4509 23.0852C27.3564 23.156 27.2026 23.2034 27.0017 23.2034H25.985C25.7604 23.2034 25.6068 23.1678 25.5123 23.0852C25.4176 23.0023 25.3349 22.8487 25.2877 22.6122L23.4552 14.9874L21.6348 22.6004C21.5757 22.8368 21.5047 22.9905 21.4102 23.0733C21.3155 23.156 21.15 23.1915 20.9372 23.1915H19.9206ZM35.1114 23.5107C34.4966 23.5107 33.8819 23.4397 33.2908 23.2979C32.6998 23.156 32.2387 23.0023 31.9312 22.825C31.7422 22.7186 31.6121 22.6004 31.5649 22.494C31.5189 22.3897 31.4947 22.277 31.4939 22.163V21.5602C31.4939 21.3118 31.5884 21.1936 31.7658 21.1936C31.8368 21.1936 31.9077 21.2055 31.9785 21.2292C32.0495 21.2527 32.1559 21.3 32.2741 21.3474C32.6917 21.531 33.1276 21.6697 33.5745 21.7611C34.0375 21.8551 34.5088 21.9026 34.9813 21.903C35.7261 21.903 36.3052 21.7729 36.7072 21.5129C37.1091 21.2527 37.3219 20.8745 37.3219 20.3899C37.3219 20.0589 37.2155 19.7868 37.0027 19.5622C36.79 19.3376 36.388 19.1367 35.8087 18.9475L34.0947 18.4156C33.2316 18.1438 32.5932 17.7418 32.2031 17.2099C31.813 16.6897 31.6121 16.1102 31.6121 15.4957C31.6121 14.9993 31.7185 14.5619 31.9312 14.1835C32.144 13.8052 32.4277 13.4742 32.7824 13.2142C33.1371 12.9422 33.5391 12.7413 34.0119 12.5993C34.4848 12.4574 34.9813 12.3984 35.5015 12.3984C35.7615 12.3984 36.0333 12.4103 36.2935 12.4457C36.5654 12.4811 36.8135 12.5284 37.0619 12.5758C37.2983 12.6349 37.5229 12.694 37.7357 12.765C37.9484 12.8358 38.1139 12.9067 38.2322 12.9777C38.3977 13.0723 38.5159 13.1668 38.5869 13.2732C38.6578 13.3678 38.6932 13.4979 38.6932 13.6634V14.219C38.6932 14.4672 38.5987 14.5973 38.4214 14.5973C38.3267 14.5973 38.1731 14.55 37.9722 14.4553C37.2983 14.1481 36.5417 13.9944 35.7024 13.9944C35.0285 13.9944 34.4966 14.1008 34.1301 14.3254C33.7635 14.55 33.5745 14.8929 33.5745 15.3775C33.5745 15.7085 33.6927 15.9922 33.9292 16.2168C34.1657 16.4414 34.603 16.666 35.2296 16.8669L36.9082 17.3988C37.7592 17.6708 38.3741 18.0491 38.7405 18.5339C39.1069 19.0187 39.2842 19.5741 39.2842 20.1888C39.2842 20.6971 39.1779 21.1582 38.977 21.5602C38.7642 21.9621 38.4805 22.3166 38.1139 22.6004C37.7476 22.896 37.31 23.1087 36.8019 23.2625C36.2698 23.428 35.7142 23.5107 35.1114 23.5107Z" fill="#252F3E"/>
<path fill-rule="evenodd" clip-rule="evenodd" d="M37.3458 29.2561C33.4565 32.1287 27.8058 33.6537 22.9471 33.6537C16.138 33.6537 10.0024 31.1356 5.36843 26.9509C5.00187 26.6199 5.33303 26.1707 5.77039 26.4307C10.7828 29.3387 16.9655 31.1002 23.3609 31.1002C27.6757 31.1002 32.4163 30.2018 36.7783 28.3576C37.4285 28.062 37.9841 28.7831 37.3458 29.2561Z" fill="#FF9900"/>
<path fill-rule="evenodd" clip-rule="evenodd" d="M38.9648 27.4118C38.4683 26.7733 35.6785 27.1043 34.4135 27.258C34.0353 27.3054 33.9761 26.9742 34.319 26.7261C36.5414 25.1657 40.1942 25.6149 40.6199 26.1349C41.0454 26.667 40.5017 30.3198 38.4211 32.0694C38.1018 32.3413 37.7945 32.1994 37.9363 31.8448C38.4092 30.6745 39.4613 28.0382 38.9648 27.4118Z" fill="#FF9900"/>
</svg>
