<svg width="46" height="46" viewBox="0 0 46 46" fill="none" xmlns="http://www.w3.org/2000/svg">
<path d="M15.4335 1.60613H28.8709L14.9219 42.9357C14.7786 43.3605 14.5057 43.7297 14.1415 43.9912C13.7774 44.2527 13.3403 44.3933 12.892 44.3932H2.43466C2.09503 44.3932 1.76028 44.3124 1.45807 44.1574C1.15587 44.0023 0.894902 43.7776 0.696729 43.5018C0.498476 43.226 0.368817 42.907 0.318501 42.5711C0.268185 42.2352 0.298661 41.8921 0.407404 41.5703L13.4036 3.06332C13.547 2.63857 13.82 2.26947 14.1841 2.00796C14.5482 1.74644 14.9852 1.60568 15.4335 1.60547V1.60613Z" fill="url(#paint0_linear_142_315)"/>
<path d="M34.9602 29.3276H13.6517C13.4536 29.3273 13.2599 29.3866 13.096 29.4979C12.9321 29.6092 12.8055 29.7674 12.7328 29.9517C12.6601 30.136 12.6446 30.338 12.6884 30.5312C12.7322 30.7245 12.8332 30.9 12.9783 31.035L26.6705 43.8151C27.0693 44.1867 27.5941 44.3934 28.1392 44.3937H40.2049L34.9602 29.3276Z" fill="#0078D4"/>
<path d="M15.434 1.60646C14.9808 1.60455 14.5388 1.74772 14.1727 2.01502C13.8066 2.28232 13.5357 2.65973 13.3995 3.09206L0.424139 41.5357C0.308383 41.8586 0.272088 42.2047 0.318322 42.5446C0.364556 42.8846 0.491959 43.2084 0.689762 43.4887C0.887565 43.769 1.14995 43.9976 1.45474 44.1551C1.75953 44.3126 2.09775 44.3944 2.44083 44.3936H13.1683C13.5679 44.3223 13.9413 44.1461 14.2505 43.8832C14.5597 43.6203 14.7935 43.28 14.9281 42.8971L17.5155 35.2712L26.7584 43.8919C27.1456 44.2122 27.6314 44.3894 28.134 44.3936H40.1548L34.8826 29.3275L19.5137 29.3312L28.92 1.60646H15.434Z" fill="url(#paint1_linear_142_315)"/>
<path d="M32.5966 3.06166C32.4533 2.63756 32.1806 2.26905 31.817 2.00801C31.4533 1.74697 31.017 1.60652 30.5693 1.60645H15.5938C16.0413 1.60659 16.4776 1.74707 16.8412 2.00811C17.2048 2.26914 17.4774 2.63761 17.6207 3.06166L30.6172 41.5703C30.726 41.8922 30.7566 42.2353 30.7064 42.5713C30.6562 42.9073 30.5267 43.2265 30.3286 43.5025C30.1305 43.7785 29.8695 44.0034 29.5672 44.1585C29.2649 44.3135 28.93 44.3943 28.5903 44.3942H43.5665C43.9061 44.394 44.2408 44.3129 44.5429 44.1578C44.8449 44.0026 45.1058 43.7778 45.3038 43.5019C45.5018 43.226 45.6313 42.9069 45.6816 42.571C45.7319 42.2352 45.7016 41.8921 45.5931 41.5703L32.5966 3.06166Z" fill="url(#paint2_linear_142_315)"/>
<defs>
<linearGradient id="paint0_linear_142_315" x1="20.3312" y1="4.77682" x2="6.37623" y2="46.0027" gradientUnits="userSpaceOnUse">
<stop stop-color="#114A8B"/>
<stop offset="1" stop-color="#0669BC"/>
</linearGradient>
<linearGradient id="paint1_linear_142_315" x1="24.6908" y1="23.9895" x2="21.463" y2="25.0808" gradientUnits="userSpaceOnUse">
<stop stop-opacity="0.3"/>
<stop offset="0.071" stop-opacity="0.2"/>
<stop offset="0.321" stop-opacity="0.1"/>
<stop offset="0.623" stop-opacity="0.05"/>
<stop offset="1" stop-opacity="0"/>
</linearGradient>
<linearGradient id="paint2_linear_142_315" x1="22.9151" y1="3.57458" x2="38.2335" y2="44.3853" gradientUnits="userSpaceOnUse">
<stop stop-color="#3CCBF4"/>
<stop offset="1" stop-color="#2892DF"/>
</linearGradient>
</defs>
</svg>
