<svg width="41" height="46" viewBox="0 0 41 46" fill="none" xmlns="http://www.w3.org/2000/svg">
<g clip-path="url(#clip0_142_369)">
<path d="M41.0009 40.158C41.005 40.9665 40.8392 41.7666 40.5144 42.5054C40.1897 43.2442 39.7133 43.9047 39.117 44.4432C38.5207 44.9817 37.8181 45.3858 37.0557 45.6289C36.2932 45.872 35.4884 45.9484 34.6945 45.8531C31.8047 45.4206 29.6871 42.8775 29.7576 39.924V5.9677C29.6877 3.01106 31.8106 0.466486 34.7042 0.0387185C35.4973 -0.0552122 36.3011 0.0222328 37.0624 0.265931C37.8237 0.509628 38.5252 0.914025 39.1204 1.45237C39.7156 1.99072 40.191 2.65074 40.5152 3.38878C40.8394 4.12683 41.0049 4.92607 41.0009 5.73365V40.158Z" fill="#F9AB00"/>
<path d="M5.62164 34.531C8.72643 34.531 11.2433 37.0766 11.2433 40.2164C11.2433 43.3564 8.72643 45.9018 5.62164 45.9018C2.51686 45.9018 0 43.3564 0 40.2166C0 37.0768 2.51686 34.531 5.62164 34.531ZM20.4134 17.2993C17.294 17.4723 14.8736 20.1186 14.9461 23.2774V38.5489C14.9461 42.6935 16.7493 45.2095 19.3912 45.7458C20.2103 45.9138 21.0561 45.8952 21.8672 45.6915C22.6783 45.4878 23.4344 45.1041 24.0807 44.5681C24.7269 44.0322 25.2471 43.3575 25.6035 42.593C25.9599 41.8284 26.1436 40.9933 26.1412 40.1481V23.0142C26.1426 22.2567 25.9948 21.5066 25.7065 20.8075C25.4182 20.1084 24.9951 19.4744 24.4619 18.9424C23.9287 18.4104 23.2961 17.9912 22.601 17.7091C21.9059 17.4271 21.1622 17.2876 20.4134 17.2993Z" fill="#E37400"/>
</g>
<defs>
<clipPath id="clip0_142_369">
<rect width="41" height="46" fill="white"/>
</clipPath>
</defs>
</svg>
