<svg width="46" height="46" viewBox="0 0 46 46" fill="none" xmlns="http://www.w3.org/2000/svg">
<g clip-path="url(#clip0_142_363)">
<path d="M41.7953 32.0204H4.20469C1.86875 32.0204 0 30.1517 0 27.8157V13.4407C0 11.1407 1.86875 9.27197 4.20469 9.27197H41.8312C44.1313 9.27197 46.0359 11.1407 46.0359 13.4767V27.8517C46 30.1517 44.1313 32.0204 41.7953 32.0204Z" fill="#7F54B3"/>
<path d="M4.95957 27.5642C4.95957 27.5642 5.96582 31.8049 8.01426 28.9658C10.0627 26.1267 12.0393 21.6705 12.0393 21.6705C12.0393 21.6705 12.183 20.5564 12.758 23.0002C13.333 25.4439 15.8127 28.7502 15.8127 28.7502C15.8127 28.7502 18.0768 31.5892 19.0111 28.6064C18.6518 24.6533 20.0174 17.4658 21.4189 14.0158C21.9939 10.9611 18.7955 11.8236 18.508 12.5424C18.2205 13.2611 16.2439 17.8611 16.1002 22.6767C16.1002 22.6767 14.4111 18.0767 14.2674 16.4236C14.1236 14.7346 12.3627 14.3033 11.3564 15.9205C10.3502 17.5377 7.29551 23.7908 7.29551 23.7908L5.31895 13.5846C5.31895 13.5846 3.34238 10.9611 2.19238 14.1596C2.19238 14.1596 4.24082 26.7017 4.95957 27.5642ZM31.2658 16.4236C28.2111 11.3205 23.683 15.2017 23.683 15.2017C23.683 15.2017 20.233 19.1908 21.7783 24.6174C24.258 29.9721 27.7439 27.6002 28.6783 27.1689C29.6486 26.7017 33.7455 22.0299 31.2658 16.4236ZM28.9299 20.9158C28.9299 23.0361 27.1689 25.0127 25.7314 24.5814C24.9408 24.1143 24.4377 22.8564 24.4377 20.7002C25.1564 17.2142 26.7377 16.7471 27.5643 16.8189C29.1096 17.6455 29.0377 19.4783 28.9299 20.9158ZM42.7299 16.4236C39.6752 11.3205 35.1471 15.2017 35.1471 15.2017C35.1471 15.2017 31.6971 19.1908 33.2424 24.6174C35.7221 29.9721 39.208 27.6002 40.1424 27.1689C41.0768 26.7017 45.2096 22.0299 42.7299 16.4236ZM40.3939 20.9158C40.3939 23.0361 38.633 25.0127 37.1955 24.5814C36.4049 24.1143 35.9018 22.8564 35.9018 20.7002C36.6205 17.2142 38.2018 16.7471 39.0283 16.8189C40.5377 17.6455 40.4658 19.4783 40.3939 20.9158Z" fill="white"/>
<path d="M22.0293 32.0203L30.0434 36.7281L28.3543 32.0203L23.7543 30.7266L22.0293 32.0203Z" fill="#7F54B3"/>
</g>
<defs>
<clipPath id="clip0_142_363">
<rect width="46" height="46" fill="white"/>
</clipPath>
</defs>
</svg>
