<svg width="46" height="46" viewBox="0 0 46 46" fill="none" xmlns="http://www.w3.org/2000/svg">
<g clip-path="url(#clip0_142_358)">
<path d="M8.14595 0.575195H37.854C42.3585 0.575195 46 4.21674 46 8.72115V37.2792C46 41.7836 42.3585 45.4252 37.854 45.4252H8.14595C3.64155 45.4252 0 41.7836 0 37.2792V8.72115C0 4.21674 3.64155 0.575195 8.14595 0.575195Z" fill="#001E36"/>
<path d="M16.4831 11.979C15.9081 11.979 15.3331 11.979 14.739 11.9984C14.1446 12.0175 13.5887 12.0175 13.0712 12.0369C12.5537 12.0559 12.0746 12.0559 11.6146 12.075C11.1737 12.094 10.8671 12.094 10.5412 12.094C10.4071 12.094 10.3496 12.1706 10.3496 12.305V32.0275C10.3496 32.2 10.4262 32.2769 10.5796 32.2769H14.2981C14.4321 32.2575 14.5281 32.1425 14.5087 32.0084V25.8559C14.8727 25.8559 15.1412 25.8559 15.3331 25.875C15.5246 25.894 15.8312 25.894 16.2912 25.894C17.8631 25.894 19.3006 25.7215 20.6037 25.2425C21.8496 24.7825 22.9231 23.9775 23.6896 22.904C24.4563 21.8307 24.8396 20.4698 24.8396 18.8215C24.8396 17.959 24.6865 17.135 24.399 16.33C24.0944 15.5098 23.6171 14.7647 22.9996 14.145C22.2707 13.4369 21.3934 12.8999 20.4312 12.5731C19.3577 12.1706 18.0546 11.979 16.4831 11.979ZM16.9107 15.7542C17.5935 15.7672 18.2584 15.8865 18.8787 16.1381C19.4346 16.349 19.8946 16.7325 20.2206 17.2306C20.5263 17.746 20.6792 18.3378 20.6615 18.9369C20.6615 19.78 20.4696 20.4319 20.0671 20.9109C19.6452 21.39 19.1087 21.7544 18.4956 21.9269C17.7862 22.1569 17.0387 22.2715 16.2912 22.2715H15.2752C15.0452 22.2715 14.7965 22.2525 14.5281 22.2334V15.7934C14.6621 15.774 14.9306 15.755 15.314 15.7744C15.6781 15.755 16.1187 15.755 16.6171 15.755C16.7153 15.7526 16.8132 15.7523 16.9107 15.7542ZM32.9856 16.7328C31.6246 16.7328 30.4937 16.9434 29.5931 17.4034C28.769 17.7869 28.0596 18.4 27.5806 19.1665C27.159 19.8759 26.9287 20.6615 26.9287 21.4859C26.9123 22.164 27.0638 22.8355 27.3696 23.4409C27.7281 24.0855 28.2258 24.642 28.8265 25.07C29.6697 25.6466 30.5846 26.1106 31.5481 26.45C32.4871 26.814 33.1196 27.1015 33.4265 27.3506C33.7331 27.6 33.8865 27.849 33.8865 28.1175C33.8865 28.4625 33.6756 28.7884 33.369 28.9225C33.024 29.095 32.5065 29.1909 31.7781 29.1909C31.0115 29.1909 30.2446 29.095 29.5162 28.9034C28.6797 28.7166 27.8778 28.3997 27.1396 27.9644C27.0821 27.9259 27.0246 27.9069 26.9671 27.9453C26.9096 27.9834 26.8906 28.06 26.8906 28.1175V31.4525C26.8715 31.6059 26.9671 31.74 27.1015 31.8165C27.7231 32.1069 28.3805 32.3132 29.0565 32.43C29.919 32.6025 30.7812 32.679 31.6627 32.679C33.0427 32.679 34.1931 32.4684 35.1321 32.0659C35.9946 31.7209 36.7421 31.1269 37.2787 30.36C37.7812 29.606 38.0419 28.7168 38.0262 27.8109C38.0451 27.1266 37.8937 26.4482 37.5856 25.8369C37.2212 25.185 36.7037 24.6484 36.0712 24.2459C35.1459 23.6648 34.1551 23.1951 33.1196 22.8465C32.6572 22.6551 32.2031 22.4441 31.7587 22.214C31.5096 22.08 31.2796 21.9075 31.1071 21.6965C30.9921 21.5431 30.9156 21.3709 30.9156 21.1984C30.9156 21.0259 30.9731 20.8344 31.0687 20.6809C31.2031 20.4894 31.4137 20.355 31.6627 20.2975C32.0271 20.2019 32.4296 20.144 32.8127 20.1631C33.5412 20.1631 34.2502 20.259 34.9596 20.4125C35.6115 20.5465 36.2246 20.7575 36.7996 21.0644C36.8762 21.1025 36.9721 21.1025 37.1446 21.0644C37.1746 21.0422 37.1989 21.0132 37.2155 20.9799C37.2322 20.9465 37.2408 20.9097 37.2406 20.8725V17.7484C37.2406 17.6715 37.2212 17.595 37.2021 17.5184C37.1637 17.4419 37.0871 17.365 37.0106 17.3459C36.4819 17.1298 35.928 16.9817 35.3621 16.905C34.5751 16.7904 33.7809 16.7331 32.9856 16.7328Z" fill="#31A8FF"/>
</g>
<defs>
<clipPath id="clip0_142_358">
<rect width="46" height="46" fill="white"/>
</clipPath>
</defs>
</svg>
